<?xml version="1.0" encoding="UTF-8"?>
<svg id="Camada_2" data-name="Camada 2" xmlns="http://www.w3.org/2000/svg" viewBox="0 0 99.01 106.1">
  <defs>
    <style>
      .cls-1 {
        fill: #fff;
      }

      .cls-2 {
        fill: none;
        stroke: #fff;
        stroke-miterlimit: 10;
        stroke-width: .25px;
      }
    </style>
  </defs>
  <g id="guias">
    <g id="d5imxI">
      <g>
        <path class="cls-2" d="M69.33,50.52c-2.43-1.92-4.47-4-6.12-6.61l7.25-3.82c1.78,3.15,2.97,6.68,3.15,10.39.46.44,1.3.87,1.85.98-.18-4.48-1.53-8.36-3.51-12.24.6-.29,1.19-.56,1.69-.85l3.38-1.99c3.16,5.65,4.5,11.63,3.9,17.89l1.66.79c1.09-6.57-1.08-14.04-4.26-19.59l4.55-3.07-.87-1.2-4.43,2.71c-1.58-2.23-2.96-4.29-4.89-6.14-3.28-3.15-7.06-5.75-11.35-7.41-.45.16-.6,1.47-.1,1.68,6.27,2.65,11.42,6.88,15.05,12.76l-3.52,2.05-1.24,1.68c-2.81-4.05-5.97-7.42-10.43-9.73l.14,1.99c3.55,2.06,6.24,4.85,8.62,8.28l-7.29,3.94c-2.37-4.56-3.71-9.16-4.1-14.21-.61-4.47-.44-9.04.47-13.44.05-.22-.33-.83-.54-.77-.15.04-.47.31-.53.48-2.32,6.58-4.25,11.13-8.61,16.62-2.09,2.15-4.2,4.09-6.75,5.97l-4.33-6.59c3.32-1.97,6.71-3.1,10.48-3.42.58-.36,1.04-1.02,1.24-1.72-4.62.18-8.86,1.25-12.8,3.59l-3.15-5.27c5.78-3.39,12.17-4.91,18.79-4.32.36-.42.57-.87.78-1.56-7.02-.9-14.04.53-20.29,4.36-1.73-1.2-2.44-4.51-3.54-4.27-.15.03-.37.46-.29.62l2.33,4.63c-6.12,3.89-10.81,9.04-13.15,15.83.87,0,1.5-.1,2.22-.32,2.26-5.96,6.3-10.59,11.77-14.14.66,1.47,1.22,2.82,1.72,4.44.5,1.61-4.11,4.43-5.45,6.5l-3.13,4.8c-.62.95-1.52,1.51-2.67,1.57-2.78.14-5.77-.06-8.47-.44-.22-.03-.78.27-.67.43.09.13.38.4.55.48,3.09,1.44,6.01,3.04,8.87,4.91-.11,5.63,1.23,10.62,3.49,15.71-1.65,1.12-3.14,2.05-4.77,2.89-3.04-5.71-4.29-11.77-3.8-18.07-.6-.41-1.18-.74-1.74-.92-.83,7.1.83,13.8,4.21,19.91l-5.26,3.2.91,1.57,5.27-3.13c4.03,6.36,9.42,11.08,16.33,13.62l.26-1.69c-6.38-2.52-11.41-7.02-15.19-12.82l4.78-2.96c3.18,3.35,6.25,6.89,10.28,9.01.03-.9,0-1.48-.07-2.29-3.38-2.01-6.03-4.57-8.53-7.72l7.34-4.21c1.83,3.05,2.98,6.05,3.33,9.67,1.14,6.14.98,13.06-.14,18.9.12.16.56.5.68.41.12-.09.41-.38.46-.52,2.24-6.33,4.57-11.88,9.08-17.03,2.04-2.56,4.28-4.82,7.19-6.55,1.31,2.4,2.56,4.72,4.16,7.01-3.46,1.93-7.22,2.74-11.13,3.12-.48.62-.82,1.19-1.13,2,4.78-.16,9.18-1.3,13.29-3.32l2.86,4.85c-6.35,3.49-12.01,4.89-19.24,4.5-.37.27-.69,1.11-.55,1.55,7.35.85,14.42-.85,20.58-4.63l3.3,5.38c.41-.07.98-.39,1.25-.71l-3.24-5.59c5.77-3.99,11.27-9.26,13.19-16.23-.69.07-1.3.17-1.98.32-2.35,6.14-6.62,11.15-12.15,14.52l-2.6-4.65c5.06-4.24,7.41-6.32,10.02-12.48,3.61-.42,7.67-.5,11.21-.26.17.01.48-.42.53-.64-5.82-2.24-11.43-5.11-16.44-8.93ZM18.62,43.61l5.55.21-.46,2.3-5.09-2.51ZM36.41,31.24l5.02,6.97c-4.39,2.57-8.86,3.27-14.16,3.63,1.87-4.49,5.06-7.95,9.14-10.6ZM32.98,60.35c-1.5.75-2.92,1.5-4.37,2.33-2.12-4.26-3.51-8.71-3.32-13.77,3.7,1.63,8.69,5.87,10.93,9.82l-3.25,1.62ZM66.25,68.58l-3.27,2.55-4.29-7.36c4.1-2.33,8.48-3.26,13.22-3.32-1.01,3.25-3.15,5.8-5.65,8.13ZM67.53,58.96c-5.32.8-9.95,2.91-14.05,6.39-5.81,5.23-8.36,9.03-11.45,16.4,1.13-10.71-.72-20.51-8.39-28.57-2.37-2.49-5.03-4.22-8-6.06.21-1.1.52-2.24.87-3.36,8.43-.36,14.93-2.31,21.06-8.23,2.39-2.31,4.51-4.73,6-7.71l3.25-6.54.07,7.84c.02,2.72.73,5.19,1.47,7.77,3.15,10.94,10.64,16.99,21.08,21.49-4.06.09-7.94.04-11.9.6Z"/>
        <path class="cls-1" d="M90.46,63.07c-1.03,0-1.93-.67-2.23-1.71-.18-.62-.07-1.36.29-1.93.23-.38.68-.85,1.46-1,.68-.12,1.36.01,1.9.39.5.34.82.85.92,1.42.23,1.34-.58,2.54-1.89,2.79h0c-.16.03-.31.04-.46.04ZM90.47,58.63c-.15,0-.3.01-.45.04-.7.13-1.09.55-1.3.89-.32.51-.42,1.18-.26,1.73.34,1.21,1.47,1.67,2.4,1.49,1.17-.23,1.9-1.3,1.69-2.5-.09-.51-.38-.95-.82-1.26-.37-.26-.81-.39-1.27-.39Z"/>
        <path class="cls-1" d="M8.87,43.15c-1.11,0-2.07-.76-2.26-1.82-.12-.69.05-1.42.46-1.94.37-.48.9-.76,1.53-.81,1.35-.11,2.47.76,2.59,2.01.13,1.27-.8,2.42-2.07,2.55h0c-.08,0-.17.01-.25.01ZM8.82,38.81c-.07,0-.14,0-.21,0-.56.04-1.02.29-1.35.71-.36.47-.52,1.12-.41,1.75.18,1.01,1.15,1.72,2.24,1.61,1.13-.12,1.96-1.14,1.85-2.28-.1-1.06-.98-1.79-2.11-1.79Z"/>
        <path class="cls-1" d="M39.35,95.88c-.51,0-.99-.15-1.39-.44-.46-.34-.76-.84-.85-1.41-.1-.64.07-1.29.47-1.79.36-.46.88-.73,1.47-.78,1.22-.1,2.33.74,2.47,1.85.14,1.2-.67,2.37-1.77,2.54h0c-.13.02-.27.03-.4.03ZM39.24,91.7c-.06,0-.11,0-.17,0-.51.04-.97.28-1.29.69-.35.44-.51,1.03-.42,1.6.08.5.34.94.75,1.24.44.33,1.01.46,1.6.37h0c.97-.15,1.69-1.19,1.56-2.26-.11-.93-1.01-1.64-2.03-1.64Z"/>
        <path class="cls-1" d="M59.43,12.68c-.95,0-1.88-.73-2.06-1.69-.13-.66.02-1.31.4-1.81.36-.47.9-.75,1.52-.8.6-.04,1.2.16,1.64.56.42.37.67.87.69,1.39.06,1.21-.72,2.15-1.93,2.33h0c-.09.01-.18.02-.27.02ZM59.45,8.63s-.09,0-.14,0c-.55.04-1.02.29-1.34.7-.34.44-.47,1.03-.35,1.61.18.92,1.13,1.6,2.05,1.47h0c1.08-.16,1.77-.99,1.71-2.07-.02-.45-.25-.89-.61-1.21-.36-.32-.84-.5-1.32-.5Z"/>
        <path class="cls-1" d="M36.5,106.1s-.1,0-.16-.02c-.13-.04-.61-.22-.55-.47l1.36-6.84c.06-.33.58-.7.86-.75.26-.05.42.06.5.16.64.75-.44,4.06-1.58,7.19-.1.27-.18.48-.22.62-.02.05-.07.13-.21.13ZM36.48,105.89h0s0,0,0,0h0ZM38.14,98.25s-.05,0-.08,0c-.21.04-.62.36-.66.55l-1.36,6.84c.04.05.34.2.46.2.05-.14.12-.34.21-.58.56-1.53,2.25-6.19,1.62-6.94-.03-.04-.08-.08-.19-.08Z"/>
        <path class="cls-1" d="M60.73,6.53c-.08,0-.18-.01-.28-.04-.29-.07-.61-.23-.56-.47.4-1.82.96-4.11,1.43-5.83.07-.23.4-.23.69-.15.28.07.56.23.51.46l-1.41,5.82c-.03.14-.17.21-.38.21ZM61.68.25c-.07,0-.12.01-.13.02-.47,1.7-1.03,3.99-1.42,5.8.01.03.15.12.37.17.2.05.33.03.36,0l1.41-5.81s-.13-.11-.35-.16c-.1-.02-.18-.03-.24-.03Z"/>
        <path class="cls-1" d="M98.63,63.29s-.03,0-.04,0l-4.23-.94.19-1.15,4.28,1.02c.18.04.23.27.15.62-.07.3-.2.47-.34.47ZM94.64,62.15l3.98.88s.09-.16.12-.33c.03-.16.01-.25,0-.27l-3.99-.94-.11.65Z"/>
        <path class="cls-1" d="M4.24,40.34s-.04,0-.06,0l-3.48-.85c-.25-.06-.57-.38-.66-.53-.03-.05-.06-.14.04-.28.14-.19.54-.45.75-.4l3.93,1.01c.11.03.2.13.15.34-.07.26-.38.71-.66.71ZM4.23,40.09s.08-.02.17-.11c.16-.16.25-.38.25-.45l-3.91-1.01c-.1-.02-.45.21-.5.32.1.14.35.36.5.4l3.48.85Z"/>
      </g>
    </g>
  </g>
</svg>