<?xml version="1.0" encoding="UTF-8"?>
<svg id="Camada_2" data-name="Camada 2" xmlns="http://www.w3.org/2000/svg" viewBox="0 0 418.61 448.49">
  <defs>
    <style>
      .cls-1 {
        fill: #fff;
      }

      .cls-2 {
        fill: none;
        stroke: #fff;
        stroke-miterlimit: 10;
        stroke-width: .25px;
      }
    </style>
  </defs>
  <g id="_02" data-name="02">
    <g id="d5imxI">
      <g>
        <path class="cls-2" d="M288.4,194.45c-11.59-5.32-21.78-11.64-30.93-20.49l25.28-22.36c10.2,10.85,18.38,23.83,22.74,38.49,2.27,1.32,6.03,2.2,8.35,2.14-5.08-17.74-14.26-31.96-25.96-45.55,2.11-1.74,4.2-3.39,5.92-5.05l11.59-11.24c18.14,19.55,29.34,42.14,33.02,67.77l7.41,1.54c-2.04-27.34-18.02-55.14-36.13-74.24l15.2-16.71-4.63-3.95-15.1,15.15c-8.5-7.39-16.04-14.28-25.56-19.82-16.2-9.42-33.84-16.14-52.64-18.61-1.64,1.06-.97,6.46,1.23,6.82,27.66,4.48,52.4,16.39,72.63,36.39l-12.08,11.65-3.32,7.91c-15.18-13.46-31.13-23.88-51.22-28.76l2.49,7.82c16.2,4.78,29.71,13.34,42.57,24.71l-25.33,22.87c-13.91-15.95-23.76-33.04-30.26-52.88-6.8-17.3-10.55-35.75-11.21-54.22-.03-.93-2.14-2.99-2.9-2.57-.57.32-1.58,1.71-1.65,2.42-2.88,28.61-6.18,48.67-18.26,74.87-6.27,10.63-12.82,20.47-21.18,30.46l-23.76-22.14c11.36-11.1,23.84-18.96,38.59-23.87,1.97-2.01,3.16-5.11,3.29-8.08-18.3,5.2-34.22,13.64-47.71,26.82l-17.72-18.01c19.82-19.2,43.92-31.51,70.99-35.59,1.03-2.04,1.42-4.03,1.6-7-28.98,3.22-55.66,15.8-76.94,37.19-8.09-3.13-14.17-15.68-18.34-13.63-.56.28-1.04,2.21-.58,2.75l13.82,16.26c-20.7,21.52-34.44,46.7-37.18,76.16,3.49-.83,5.9-1.84,8.56-3.42,3.24-26.07,14.9-48.53,33.33-68.04,4.07,5.24,7.62,10.11,11.21,16.09,3.59,5.97-12.11,21.74-15.49,31.31l-7.86,22.26c-1.55,4.39-4.6,7.51-9.16,8.87-10.98,3.26-23.15,5.38-34.33,6.5-.92.09-2.87,1.86-2.27,2.38.48.43,1.92,1.22,2.67,1.37,13.75,2.77,27.03,6.32,40.28,10.99,5.06,22.62,15.27,41.28,29.28,59.44-5.5,6.09-10.56,11.28-16.27,16.23-17.74-19.9-28.62-42.92-32.82-68.59-2.81-1.05-5.46-1.81-7.84-1.99,3.58,29.21,16.77,54.39,36.24,75.55l-17.94,17.94,5.16,5.39,18.04-17.67c22.33,21.53,48.47,35.17,78.59,38.59l-.61-7.01c-27.97-3.88-52.51-16.97-73.28-36.51l16.24-16.5c16.01,10.32,31.72,21.48,49.91,26.02-.77-3.63-1.44-5.91-2.52-9.08-15.47-4.77-28.59-12.4-41.65-22.6l25.29-23.99c10.28,10.41,17.81,21.31,22.74,35.44,10.54,23.46,16.62,51.29,17.86,75.76.62.53,2.75,1.47,3.14.98.39-.49,1.29-1.91,1.35-2.52,2.8-27.52,6.72-51.98,19.73-76.98,5.67-12.23,12.43-23.45,22.41-33.2,7.59,8.31,14.83,16.4,23.47,23.98-11.97,11.09-26.23,18.01-41.49,23.31-1.3,2.93-2.13,5.56-2.57,9.1,18.97-5.3,35.47-14.13,49.93-26.23l16.15,16.63c-21.99,20.14-43.29,31.27-72.61,36.74-1.23,1.45-1.67,5.11-.71,6.74,30.24-3.77,56.86-17.44,77.86-38.56l18.44,18.32c1.57-.7,3.53-2.5,4.29-4.07l-18.4-19.22c19.22-21.59,36.06-48.01,36.97-77.79-2.68.97-5.05,1.96-7.62,3.2-3.42,26.84-15.62,51.07-34.49,69.92l-14.91-16.06c16.12-21.9,23.5-32.52,27.94-59.7,14.05-5.21,30.21-9.48,44.59-11.94.71-.12,1.52-2.16,1.5-3.08-25.47-3.31-50.73-9.3-74.46-19.72ZM78.78,216.18l22.41-4.57.39,9.64-22.8-5.07ZM137.89,149.35l26.89,23c-15.07,14.57-32.27,21.71-53.13,28.33,3.12-19.8,12.51-36.75,26.24-51.33ZM152.55,269.17c-5.29,4.46-10.21,8.83-15.22,13.59-12.65-14.97-22.53-31.45-26.69-51.87,16.41,2.93,40.5,15.02,53.32,28.65l-11.41,9.63ZM293.68,269.71l-10.62,13.38-24.34-25.26c14.13-13.3,30.74-21.29,49.66-26.15-.86,13.98-6.96,26.27-14.7,38.03ZM289.44,229.96c-20.5,8.37-36.99,21.35-50.01,39.24-18.15,26.6-24.64,44.28-29.85,76.77-5.9-43.95-22.85-81.36-61.41-106.16-11.91-7.66-24.25-11.97-37.93-16.46-.21-4.59-.12-9.47.21-14.3,33.4-9.65,57.47-23.79,76.26-53.46,7.33-11.58,13.45-23.33,16.48-36.71l6.63-29.35,7.92,31.32c2.75,10.88,7.96,20.04,13.46,29.67,23.26,40.72,59.14,57.6,105.27,65.44-16.14,4.3-31.71,7.91-47.03,14Z"/>
        <path class="cls-1" d="M382.91,223.96c-3.21,0-6.24-1.71-7.96-4.75-1.27-2.22-1.54-5.17-.71-7.7.54-1.66,1.8-3.91,4.68-5.19,2.52-1.13,5.25-1.23,7.69-.28,2.22.86,3.95,2.48,4.86,4.58,2.16,4.93.16,10.29-4.63,12.48h0c-1.29.59-2.62.87-3.93.87ZM383.15,205.64c-1.39,0-2.79.3-4.13.9-2.8,1.25-4.01,3.43-4.54,5.04-.81,2.46-.54,5.34.69,7.5,2.67,4.72,7.84,5.47,11.57,3.78,4.67-2.13,6.61-7.36,4.51-12.16-.89-2.03-2.57-3.61-4.72-4.44-1.08-.42-2.22-.62-3.37-.62Z"/>
        <path class="cls-1" d="M36.98,223.72c-3.48,0-6.73-1.94-8.13-5.15-1.12-2.55-1.15-5.5-.07-7.9.97-2.17,2.74-3.73,5.1-4.51,5.11-1.67,10.2.6,11.84,5.28,1.67,4.78-.82,10.04-5.56,11.73h0c-1.05.37-2.12.55-3.17.55ZM37.32,205.85c-1.09,0-2.22.18-3.37.55-2.29.75-4.01,2.26-4.95,4.37-1.04,2.33-1.02,5.21.07,7.7,1.77,4.06,6.6,6.02,10.99,4.46h0c4.61-1.65,7.03-6.76,5.4-11.41-1.25-3.58-4.44-5.68-8.16-5.68Z"/>
        <path class="cls-1" d="M210.24,405.05c-1.19,0-2.35-.23-3.44-.68-2.08-.87-3.7-2.5-4.56-4.59-.97-2.36-.92-5.03.13-7.31.96-2.09,2.7-3.63,4.88-4.34,4.62-1.51,9.64.64,11.2,4.77,1.67,4.48-.34,9.69-4.39,11.38h0c-1.25.52-2.55.78-3.82.78ZM210.27,387.88c-.98,0-1.97.15-2.95.47-2.11.69-3.79,2.19-4.73,4.21-1.03,2.22-1.07,4.81-.13,7.11.83,2.03,2.41,3.62,4.42,4.46,2.19.91,4.7.88,7.07-.1h0c3.93-1.64,5.88-6.7,4.25-11.06-1.18-3.14-4.42-5.1-7.93-5.1Z"/>
        <path class="cls-1" d="M210.05,52.52c-3.13,0-6.3-1.84-7.63-4.75-1.1-2.4-1.16-5.06-.16-7.31.94-2.13,2.74-3.72,5.07-4.46,2.25-.72,4.73-.5,6.81.6,1.92,1.02,3.36,2.71,3.93,4.64,1.36,4.6-.74,8.92-5.21,10.74h0c-.9.37-1.85.54-2.81.54ZM210.01,35.83c-.88,0-1.76.13-2.6.4-2.25.72-4,2.25-4.91,4.32-.97,2.18-.91,4.77.16,7.11,1.68,3.69,6.41,5.6,10.12,4.09h0c4.35-1.77,6.39-5.97,5.07-10.44-.56-1.87-1.95-3.51-3.81-4.49-1.24-.66-2.63-.99-4.02-.99Z"/>
        <path class="cls-1" d="M210.65,448.49s-.07,0-.1,0c-.79-.02-2.27-.38-2.29-.98l-1.22-28.7c-.05-1.16,1.52-3.03,2.46-3.46.68-.3,1.28-.27,1.78.1,3.56,2.59,1.44,21.75.54,29.93-.13,1.17-.23,2.1-.28,2.69-.02.2-.19.42-.89.42ZM210.37,415.39c-.24,0-.49.06-.77.19-.84.38-2.36,2.18-2.32,3.22l1.22,28.7c0,.31,1.12.71,2.05.74.49.01.72-.09.73-.2h0c.05-.59.15-1.51.28-2.69.82-7.44,3-27.2-.44-29.7-.23-.17-.49-.26-.77-.26Z"/>
        <path class="cls-1" d="M209.91,26.55c-1.09,0-2.24-.29-2.26-.95-.19-7.64-.17-17.33.06-24.7.02-.63,1.05-.9,2.1-.9.04,0,.08,0,.11,0,1.04.02,2.09.32,2.09.94l.03,24.66c0,.68-1.12.93-2.09.94h-.05ZM209.82.25c-1.04,0-1.84.28-1.85.66-.23,7.36-.25,17.05-.06,24.68,0,.39.9.7,2,.7h.05c1.07,0,1.84-.3,1.84-.69l-.03-24.66c0-.38-.79-.67-1.85-.69-.04,0-.07,0-.11,0Z"/>
        <path class="cls-1" d="M400.42,216.98v-.12s-.31-3.89-.31-3.89h.13s17.54-.1,17.54-.1c.6,0,.82,1.04.82,1.93,0,.84-.17,1.81-.7,1.82l-17.49.36ZM400.38,213.22l.27,3.51,17.25-.36c.22,0,.46-.6.46-1.57,0-.94-.26-1.68-.57-1.68l-17.41.1Z"/>
        <path class="cls-1" d="M17.79,216.77l-14.76-.02c-.9,0-2.41-.89-2.91-1.35-.11-.1-.2-.31-.04-.72.32-.79,1.52-2.08,2.25-2.08h0l16.72.22c.16,0,.54.09.54.83,0,1.06-.83,3.13-1.81,3.13ZM2.34,212.84c-.52,0-1.69,1.11-2.01,1.93-.09.22-.1.38-.02.45.48.45,1.93,1.29,2.73,1.29l14.76.02c.7,0,1.55-1.77,1.56-2.88,0-.26-.05-.58-.29-.58l-16.72-.22h0Z"/>
      </g>
    </g>
  </g>
</svg>