<?xml version="1.0" encoding="UTF-8"?>
<svg id="Camada_2" data-name="Camada 2" xmlns="http://www.w3.org/2000/svg" viewBox="0 0 491.76 105.85">
  <defs>
    <style>
      .cls-1 {
        fill: #fff;
      }
    </style>
  </defs>
  <g id="guias">
    <g>
      <path class="cls-1" d="M302.09,11.48l-2.51,15.63c-.08.49-.3,1.18-.6,1.39-.6.39-2.02.41-2.57.08-1.1-.68,1.44-9.78-4.67-12.19-2.06-.74-4.2-1.15-6.48-1.15l-14.59.02-6.61,24.46,6.36.02c8.1.03,10.1-2.35,12.62-9.52.48-.59,2.51-.54,3-.17.14.1.21.67.16.86l-5.97,22.62c-.52.92-2.48.91-3.1.18.15-2.3,1.22-6.97-.84-8.8-.93-.83-2.37-1.37-3.74-1.38l-9.5-.05-4.99,18.3c-.6,2.17-1.79,5.71.07,7.02.83.59,2.03.88,3.08.88h9.75c2.76-.01,5.43-.51,8.04-1.29,6.65-2,10.13-6.06,13.32-11.98.65-.61,2.25-.59,3.01-.06.07.53-.13,1.33-.33,1.87l-5.26,14.42c-.09.26-.7.84-1.06.84h-48.41c-.38-.82-.36-2.26.53-2.56,3.7-1.29,5.83.41,7.7-6.45l12.62-46.32c.46-1.68-.62-3.04-2.1-3.32l-3.81-.73c-.53-.82-.09-2.01.67-2.64h46.24Z"/>
      <path class="cls-1" d="M401.99,14.18c-3.26.72-6.06,2-8.66,4.21-2.45,2.31-4.7,4.65-7.03,7.15l-13.94,14.98,8.22,23.4c.7,2.01,1.7,3.69,3.11,5.17,1.56,1.15,3.32,1.26,5.3,1.86.72.22.31,2.33-.55,2.51l-22.88.03c-.59-.6-.39-2.28.42-2.56,2.54-.83,4.81-.31,5.98-2.32.13-1.22.13-2.37-.28-3.55l-6.12-17.73-15.55,16.92c-.93,1.02-1.72,2.09-2.17,3.31-.45,1.22.28,2.24,1.44,2.54l3.16.8c.56.47.23,2.25-.6,2.56h-18.1c-.71-.84-.29-2.35.7-2.76,3.01-.62,5.75-1.76,7.91-4.06l21.8-23.33-7.9-23.16c-1.04-3.08-3.31-5.27-6.6-5.65l-1.23-.38c-.45-.65-.23-2.4.73-2.63h22.44c1.21,4.93-4.39,1.4-6.68,5.04-.1,1.1-.11,2.2.26,3.3l5.67,16.68,12.72-13.72c1.42-1.54,2.68-2.95,3.82-4.68.16-.7.3-1.63.05-2.22-.21-.47-1.06-.95-1.68-1.07l-3.62-.71c-.59-.51-.23-2.49.68-2.59l19.7-.02c.53.69.32,2.47-.56,2.66Z"/>
      <path class="cls-1" d="M339.02,14.12c-2.48.75-6.54.34-7.58,3.93l-2.06,7.12-10.9,39.84c-.31,1.14-.42,2.25-.22,3.34.18.98,1.29,1.58,2.18,1.77l3.86.78c.59.55.33,1.97-.54,2.61h-22.32c-.65-.54-.47-2.35.39-2.61,2.55-.71,6.14-.54,7.12-4l4.03-14.28,8.18-29.96c.45-1.68.84-3.22,1.09-4.83.56-3.62-4.12-3.01-5.82-3.73-.68-.3-.28-2.57.68-2.57l22.55-.03c.37.79.28,2.35-.64,2.63Z"/>
    </g>
    <g>
      <path class="cls-1" d="M0,65.61l2.66-1.01c2.01,7.58,7.75,11.78,14.5,11.78,5.5,0,12.07-2.78,12.07-9.94,0-6.69-5.68-7.87-10.42-9.35l-4.32-1.36c-4.68-1.48-12.84-4.32-12.84-12.78s7.69-11.96,14.68-11.96,12.84,3.55,15.03,11.13l-2.54,1.07c-1.78-5.68-6.51-9.47-12.96-9.47-6.1,0-11.19,3.43-11.19,9,0,6.81,7.52,9.12,10.3,10l4.38,1.42c5.45,1.78,13.08,3.55,13.08,11.84s-7.52,13.14-15.39,13.14c-6.21,0-14.21-3.02-17.05-13.5Z"/>
      <path class="cls-1" d="M42.03,30.75c1.54,0,2.72,1.24,2.72,2.72,0,1.6-1.18,2.84-2.72,2.84s-2.78-1.24-2.78-2.84c0-1.48,1.18-2.72,2.78-2.72ZM40.61,45.55h2.72v32.55h-2.72v-32.55Z"/>
      <path class="cls-1" d="M51.09,69.99l2.54-.83c1.72,4.32,6.21,7.52,10.71,7.52,2.96,0,8.29-1.54,8.29-6.75,0-4.14-3.61-5.33-7.52-6.39l-3.02-.83c-2.78-.77-9.47-2.6-9.47-9.35,0-6.21,5.8-8.76,10.3-8.76,5.33,0,9.83,3.49,11.3,7.87l-2.72.95c-1.18-3.31-4.32-6.39-9-6.39-4.03,0-7.1,2.31-7.1,6.04,0,4.62,4.79,6.27,8.11,7.22l3.25.95c3.61,1.07,8.7,2.66,8.7,8.23,0,5.27-4.62,9.65-11.19,9.65-6.16,0-11.36-3.67-13.2-9.12Z"/>
      <path class="cls-1" d="M84.65,68.51v-20.6h-6.51v-2.37h6.51v-9.83h2.72v9.83h10.3v2.37h-10.3v20.01c0,3.85,0,8.76,4.68,8.76,1.48,0,3.43-.47,5.62-2.01v2.72c-1.66,1.12-3.91,1.72-5.98,1.72-7.04,0-7.04-6.69-7.04-10.59Z"/>
      <path class="cls-1" d="M101.46,61.88c0-10.18,6.63-17.28,15.86-17.28,5.56,0,14.62,2.6,14.62,15.98v1.6h-27.52c0,8.7,5.39,14.5,13.02,14.5,6.45,0,10.65-4.26,12.61-9.23l2.43.77c-2.54,7.1-8.41,10.89-15.21,10.89-9.12,0-15.8-6.98-15.8-17.22ZM128.92,59.45c0-9.29-6.33-12.43-11.72-12.43-6.87,0-11.72,5.09-12.67,12.43h24.39Z"/>
      <path class="cls-1" d="M140.83,45.55h2.6v6.69h.12c2.6-5.45,7.04-7.64,11.72-7.64,4.38,0,9.53,1.95,11.07,8.58h.12c3.08-6.45,7.46-8.58,12.07-8.58,5.45,0,11.66,2.96,11.66,13.14v20.36h-2.72v-19.18c0-9.29-5.03-11.9-9.47-11.9-7.16,0-11.13,6.87-11.13,12.49v18.59h-2.72v-19.18c0-9.29-5.03-11.9-9.47-11.9-7.16,0-11.13,6.87-11.13,12.49v18.59h-2.72v-32.55Z"/>
      <path class="cls-1" d="M198.3,70.94c0-6.21,5.74-8.76,12.13-10.06,5.62-1.12,10.54-1.24,10.54-5.92,0-4.02-3.61-7.93-9.17-7.93-4.85,0-8.29,3.02-9.59,7.34l-2.72-.95c1.89-6.1,7.4-8.82,12.55-8.82s11.84,2.84,11.84,10.65v12.67c0,5.45.42,7.64,1.07,10.18h-2.78c-.65-2.54-.89-4.73-.89-7.52h-.12c-2.13,4.79-6.21,8.52-12.73,8.52-5.5,0-10.12-2.66-10.12-8.17ZM208.66,76.74c7.58,0,12.31-7.22,12.31-11.9v-4.97c-1.83,1.6-2.96,2.07-8.11,3.02-4.14.77-11.66,2.19-11.66,7.87,0,3.61,2.84,5.98,7.46,5.98Z"/>
    </g>
    <g id="d5imxI">
      <g>
        <path class="cls-1" d="M462.21,50.4c-2.43-1.92-4.47-4-6.12-6.61l7.25-3.82c1.78,3.15,2.97,6.68,3.15,10.39.46.44,1.3.87,1.85.98-.18-4.48-1.53-8.36-3.51-12.24.6-.29,1.19-.56,1.69-.85l3.38-1.99c3.16,5.65,4.5,11.63,3.9,17.89l1.66.79c1.09-6.57-1.08-14.04-4.26-19.59l4.55-3.07-.87-1.2-4.43,2.71c-1.58-2.23-2.96-4.29-4.89-6.14-3.28-3.15-7.06-5.75-11.35-7.41-.45.16-.6,1.47-.1,1.68,6.27,2.65,11.42,6.88,15.05,12.76l-3.52,2.05-1.24,1.68c-2.81-4.05-5.97-7.42-10.43-9.73l.14,1.99c3.55,2.06,6.24,4.85,8.62,8.28l-7.29,3.94c-2.37-4.56-3.71-9.16-4.1-14.21-.61-4.47-.44-9.04.47-13.44.05-.22-.33-.83-.54-.77-.15.04-.47.31-.53.48-2.32,6.58-4.25,11.13-8.61,16.62-2.09,2.15-4.2,4.09-6.75,5.97l-4.33-6.59c3.32-1.97,6.71-3.1,10.48-3.42.58-.36,1.04-1.02,1.24-1.72-4.62.18-8.86,1.25-12.8,3.59l-3.15-5.27c5.78-3.39,12.17-4.91,18.79-4.32.36-.42.57-.87.78-1.56-7.02-.9-14.04.53-20.29,4.36-1.73-1.2-2.44-4.51-3.54-4.27-.15.03-.37.46-.29.62l2.33,4.63c-6.12,3.89-10.81,9.04-13.15,15.83.87,0,1.5-.1,2.22-.32,2.26-5.96,6.3-10.59,11.77-14.14.66,1.47,1.22,2.82,1.72,4.44.5,1.61-4.11,4.43-5.45,6.5l-3.13,4.8c-.62.95-1.52,1.51-2.67,1.57-2.78.14-5.77-.06-8.47-.44-.22-.03-.78.27-.67.43.09.13.38.4.55.48,3.09,1.44,6.01,3.04,8.87,4.91-.11,5.63,1.23,10.62,3.49,15.71-1.65,1.12-3.14,2.05-4.77,2.89-3.04-5.71-4.29-11.77-3.8-18.07-.6-.41-1.18-.74-1.74-.92-.83,7.1.83,13.8,4.21,19.91l-5.26,3.2.91,1.57,5.27-3.13c4.03,6.36,9.42,11.08,16.33,13.62l.26-1.69c-6.38-2.52-11.41-7.02-15.19-12.82l4.78-2.96c3.18,3.35,6.25,6.89,10.28,9.01.03-.9,0-1.48-.07-2.29-3.38-2.01-6.03-4.57-8.53-7.72l7.34-4.21c1.83,3.05,2.98,6.05,3.33,9.67,1.14,6.14.98,13.06-.14,18.9.12.16.56.5.68.41.12-.09.41-.38.46-.52,2.24-6.33,4.57-11.88,9.08-17.03,2.04-2.56,4.28-4.82,7.19-6.55,1.31,2.4,2.56,4.72,4.16,7.01-3.46,1.93-7.22,2.74-11.13,3.12-.48.62-.82,1.19-1.13,2,4.78-.16,9.18-1.3,13.29-3.32l2.86,4.85c-6.35,3.49-12.01,4.89-19.24,4.5-.37.27-.69,1.11-.55,1.55,7.35.85,14.42-.85,20.58-4.63l3.3,5.38c.41-.07.98-.39,1.25-.71l-3.24-5.59c5.77-3.99,11.27-9.26,13.19-16.23-.69.07-1.3.17-1.98.32-2.35,6.14-6.62,11.15-12.15,14.52l-2.6-4.65c5.06-4.24,7.41-6.32,10.02-12.48,3.61-.42,7.67-.5,11.21-.26.17.01.48-.42.53-.64-5.82-2.24-11.43-5.11-16.44-8.93ZM411.5,43.48l5.55.21-.46,2.3-5.09-2.51ZM429.29,31.11l5.02,6.97c-4.39,2.57-8.86,3.27-14.16,3.63,1.87-4.49,5.06-7.95,9.14-10.6ZM425.87,60.22c-1.5.75-2.92,1.5-4.37,2.33-2.12-4.26-3.51-8.71-3.32-13.77,3.7,1.63,8.69,5.87,10.93,9.82l-3.25,1.62ZM459.13,68.46l-3.27,2.55-4.29-7.36c4.1-2.33,8.48-3.26,13.22-3.32-1.01,3.25-3.15,5.8-5.65,8.13ZM460.42,58.84c-5.32.8-9.95,2.91-14.05,6.39-5.81,5.23-8.36,9.03-11.45,16.4,1.13-10.71-.72-20.51-8.39-28.57-2.37-2.49-5.03-4.22-8-6.06.21-1.1.52-2.24.87-3.36,8.43-.36,14.93-2.31,21.06-8.23,2.39-2.31,4.51-4.73,6-7.71l3.25-6.54.07,7.84c.02,2.72.73,5.19,1.47,7.77,3.15,10.94,10.64,16.99,21.08,21.49-4.06.09-7.94.04-11.9.6Z"/>
        <path class="cls-1" d="M483.78,62.78c-1.07.2-2.21-.38-2.55-1.58-.3-1.06.26-2.52,1.65-2.78,1.33-.24,2.48.58,2.68,1.71.21,1.21-.48,2.39-1.79,2.64Z"/>
        <path class="cls-1" d="M401.99,42.88c-1.1.11-2.18-.59-2.37-1.71-.21-1.18.46-2.49,1.87-2.6,1.36-.1,2.35.76,2.46,1.9.12,1.2-.74,2.29-1.96,2.42Z"/>
        <path class="cls-1" d="M432.61,95.6c-1.25.19-2.32-.57-2.49-1.71-.17-1.14.57-2.33,1.82-2.43,1.18-.09,2.21.69,2.33,1.74.14,1.14-.63,2.24-1.66,2.4Z"/>
        <path class="cls-1" d="M452.57,12.41c-1.01.15-2-.61-2.19-1.57-.24-1.23.54-2.37,1.81-2.46,1.16-.08,2.15.8,2.2,1.83.05,1.14-.68,2.03-1.82,2.2Z"/>
        <path class="cls-1" d="M429.48,105.81c-.05.16-.72-.14-.68-.3l1.36-6.84c.05-.26.52-.61.76-.65,1.7-.31-1.04,6.63-1.43,7.8Z"/>
        <path class="cls-1" d="M453.87,6.17c-.06.26-1.04.01-.98-.24.39-1.79.95-4.1,1.43-5.82.07-.25,1.02,0,.96.24l-1.41,5.82Z"/>
        <path class="cls-1" d="M491.5,63.04l-4.12-.91.15-.9,4.14.98c.21.05.01.88-.17.83Z"/>
        <path class="cls-1" d="M397.09,40.09l-3.48-.85c-.2-.05-.5-.33-.59-.47s.46-.54.65-.49l3.93,1.01c.25.06-.24.87-.51.8Z"/>
      </g>
    </g>
  </g>
</svg>