<?xml version="1.0" encoding="UTF-8"?>
<svg id="Camada_2" data-name="Camada 2" xmlns="http://www.w3.org/2000/svg" viewBox="0 0 418.36 448.24">
  <g id="_02" data-name="02">
    <g id="d5imxI">
      <g>
        <path d="M288.28,194.33c-11.59-5.32-21.78-11.64-30.93-20.49l25.28-22.36c10.2,10.85,18.38,23.83,22.74,38.49,2.27,1.32,6.03,2.2,8.35,2.14-5.08-17.74-14.26-31.96-25.96-45.55,2.11-1.74,4.2-3.39,5.92-5.05l11.59-11.24c18.14,19.55,29.34,42.14,33.02,67.77l7.41,1.54c-2.04-27.34-18.02-55.14-36.13-74.24l15.2-16.71-4.63-3.95-15.1,15.15c-8.5-7.39-16.04-14.28-25.56-19.82-16.2-9.42-33.84-16.14-52.64-18.61-1.64,1.06-.97,6.46,1.23,6.82,27.66,4.48,52.4,16.39,72.63,36.39l-12.08,11.65-3.32,7.91c-15.18-13.46-31.13-23.88-51.22-28.76l2.49,7.82c16.2,4.78,29.71,13.34,42.57,24.71l-25.33,22.87c-13.91-15.95-23.76-33.04-30.26-52.88-6.8-17.3-10.55-35.75-11.21-54.22-.03-.93-2.14-2.99-2.9-2.57-.57.32-1.58,1.71-1.65,2.42-2.88,28.61-6.18,48.67-18.26,74.87-6.27,10.63-12.82,20.47-21.18,30.46l-23.76-22.14c11.36-11.1,23.84-18.96,38.59-23.87,1.97-2.01,3.16-5.11,3.29-8.08-18.3,5.2-34.22,13.64-47.71,26.82l-17.72-18.01c19.82-19.2,43.92-31.51,70.99-35.59,1.03-2.04,1.42-4.03,1.6-7-28.98,3.22-55.66,15.8-76.94,37.19-8.09-3.13-14.17-15.68-18.34-13.63-.56.28-1.04,2.21-.58,2.75l13.82,16.26c-20.7,21.52-34.44,46.7-37.18,76.16,3.49-.83,5.9-1.84,8.56-3.42,3.24-26.07,14.9-48.53,33.33-68.04,4.07,5.24,7.62,10.11,11.21,16.09,3.59,5.97-12.11,21.74-15.49,31.31l-7.86,22.26c-1.55,4.39-4.6,7.51-9.16,8.87-10.98,3.26-23.15,5.38-34.33,6.5-.92.09-2.87,1.86-2.27,2.38.48.43,1.92,1.22,2.67,1.37,13.75,2.77,27.03,6.32,40.28,10.99,5.06,22.62,15.27,41.28,29.28,59.44-5.5,6.09-10.56,11.28-16.27,16.23-17.74-19.9-28.62-42.92-32.82-68.59-2.81-1.05-5.46-1.81-7.84-1.99,3.58,29.21,16.77,54.39,36.24,75.55l-17.94,17.94,5.16,5.39,18.04-17.67c22.33,21.53,48.47,35.17,78.59,38.59l-.61-7.01c-27.97-3.88-52.51-16.97-73.28-36.51l16.24-16.5c16.01,10.32,31.72,21.48,49.91,26.02-.77-3.63-1.44-5.91-2.52-9.08-15.47-4.77-28.59-12.4-41.65-22.6l25.29-23.99c10.28,10.41,17.81,21.31,22.74,35.44,10.54,23.46,16.62,51.29,17.86,75.76.62.53,2.75,1.47,3.14.98.39-.49,1.29-1.91,1.35-2.52,2.8-27.52,6.72-51.98,19.73-76.98,5.67-12.23,12.43-23.45,22.41-33.2,7.59,8.31,14.83,16.4,23.47,23.98-11.97,11.09-26.23,18.01-41.49,23.31-1.3,2.93-2.13,5.56-2.57,9.1,18.97-5.3,35.47-14.13,49.93-26.23l16.15,16.63c-21.99,20.14-43.29,31.27-72.61,36.74-1.23,1.45-1.67,5.11-.71,6.74,30.24-3.77,56.86-17.44,77.86-38.56l18.44,18.32c1.57-.7,3.53-2.5,4.29-4.07l-18.4-19.22c19.22-21.59,36.06-48.01,36.97-77.79-2.68.97-5.05,1.96-7.62,3.2-3.42,26.84-15.62,51.07-34.49,69.92l-14.91-16.06c16.12-21.9,23.5-32.52,27.94-59.7,14.05-5.21,30.21-9.48,44.59-11.94.71-.12,1.52-2.16,1.5-3.08-25.47-3.31-50.73-9.3-74.46-19.72ZM78.66,216.06l22.41-4.57.39,9.64-22.8-5.07ZM137.77,149.23l26.89,23c-15.07,14.57-32.27,21.71-53.13,28.33,3.12-19.8,12.51-36.75,26.24-51.33ZM152.43,269.05c-5.29,4.46-10.21,8.83-15.22,13.59-12.65-14.97-22.53-31.45-26.69-51.87,16.41,2.93,40.5,15.02,53.32,28.65l-11.41,9.63ZM293.56,269.59l-10.62,13.38-24.34-25.26c14.13-13.3,30.74-21.29,49.66-26.15-.86,13.98-6.96,26.27-14.7,38.03ZM289.32,229.84c-20.5,8.37-36.99,21.35-50.01,39.24-18.15,26.6-24.64,44.28-29.85,76.77-5.9-43.95-22.85-81.36-61.41-106.16-11.91-7.66-24.25-11.97-37.93-16.46-.21-4.59-.12-9.47.21-14.3,33.4-9.65,57.47-23.79,76.26-53.46,7.33-11.58,13.45-23.33,16.48-36.71l6.63-29.35,7.92,31.32c2.75,10.88,7.96,20.04,13.46,29.67,23.26,40.72,59.14,57.6,105.27,65.44-16.14,4.3-31.71,7.91-47.03,14Z"/>
        <path d="M386.66,222.85c-4.09,1.86-9.2.64-11.73-3.83-2.25-3.95-1.42-10.34,3.91-12.72,5.08-2.27,10.5-.09,12.39,4.23,2.02,4.62.4,10.05-4.57,12.32Z"/>
        <path d="M39.99,222.93c-4.31,1.53-9.29-.26-11.15-4.53-1.98-4.52-.57-10.43,4.95-12.24,5.32-1.74,10.13.77,11.68,5.2,1.64,4.68-.72,9.87-5.48,11.57Z"/>
        <path d="M213.88,404.03c-4.8,1.98-9.84-.02-11.65-4.43-1.8-4.38,0-9.88,4.93-11.49,4.63-1.51,9.51.62,11.04,4.7,1.65,4.42-.33,9.56-4.32,11.22Z"/>
        <path d="M212.69,51.74c-3.89,1.59-8.61-.49-10.28-4.15-2.15-4.7-.16-10.01,4.83-11.6,4.57-1.46,9.38,1.1,10.59,5.16,1.33,4.51-.75,8.8-5.14,10.59Z"/>
        <path d="M211.29,447.93c-.06.68-3.01.13-3.03-.55l-1.22-28.7c-.05-1.09,1.48-2.93,2.39-3.34,6.48-2.91,2.31,27.55,1.86,32.59Z"/>
        <path d="M211.81,25.48c0,1.12-4.13,1.06-4.15-.01-.19-7.53-.17-17.32.06-24.69.04-1.07,4.06-1.02,4.06.04l.03,24.66Z"/>
        <path d="M417.78,216.37l-17.37.36-.29-3.76,17.54-.1c.91,0,.91,3.49.12,3.5Z"/>
        <path d="M17.67,216.52l-14.76-.02c-.83,0-2.31-.84-2.82-1.32s1.31-2.6,2.13-2.59l16.72.22c1.06.01-.11,3.71-1.27,3.71Z"/>
      </g>
    </g>
  </g>
</svg>