<svg viewBox="0 0 24 24" xmlns="http://www.w3.org/2000/svg">
    <linearGradient id="ig-g" x1="1.956" x2="21.579" y1="21.579" y2="1.956" gradientUnits="userSpaceOnUse">
        <stop stopColor="#f09433"/>
        <stop offset=".3" stopColor="#e6683c"/>
        <stop offset=".5" stopColor="#dc2743"/>
        <stop offset=".7" stopColor="#cc2366"/>
        <stop offset="1" stopColor="#bc1888"/>
    </linearGradient>
    <path fill="url(#ig-g)" d="M12 2.163c3.204 0 3.584.012 4.85.07 1.366.062 2.633.344 3.608 1.32.975.974 1.258 2.242 1.32 3.608.058 1.266.07 1.646.07 4.85s-.012 3.584-.07 4.85c-.062 1.366-.344 2.633-1.32 3.608-.975.975-2.242 1.258-3.608 1.32-1.266.058-1.646.07-4.85.07s-3.584-.012-4.85-.07c-1.366-.062-2.633-.344-3.608-1.32-.975-.975-1.258-2.242-1.32-3.608-.058-1.266-.07-1.646-.07-4.85s.012-3.584.07-4.85c.062-1.366.344-2.633 1.32-3.608.975-.975 2.242-1.258 3.608-1.32 1.266-.058 1.646-.07 4.85-.07m0-2.163C8.741 0 8.333.014 7.053.072 2.695.272.272 2.693.072 7.053.014 8.333 0 8.741 0 12s.014 3.667.072 4.947c.2 4.358 2.622 6.78 6.98 6.98 1.28.058 1.688.072 4.948.072s3.667-.014 4.947-.072c4.358-.2 6.78-2.622 6.98-6.98.058-1.28.072-1.688.072-4.948s-.014-3.667-.072-4.947c-.2-4.358-2.622-6.78-6.98-6.98C15.667.014 15.259 0 12 0z"/>
    <path fill="url(#ig-g)" d="M12 5.838a6.162 6.162 0 1 0 0 12.324 6.162 6.162 0 0 0 0-12.324zm0 10.16a3.998 3.998 0 1 1 0-7.996 3.998 3.998 0 0 1 0 7.996z"/>
    <circle fill="url(#ig-g)" cx="18.406" cy="5.594" r="1.44"/>
</svg>
